<svg xmlns="http://www.w3.org/2000/svg" viewBox="0 0 512 512" width="512" height="512" role="img" aria-label="NOTIGAS - camion de reciclaje">
  <defs>
    <linearGradient id="bgRecicla" x1="0%" y1="0%" x2="100%" y2="100%">
      <stop offset="0%" stop-color="#059669"/>
      <stop offset="55%" stop-color="#047857"/>
      <stop offset="100%" stop-color="#065F46"/>
    </linearGradient>
    <linearGradient id="cajaRecicla" x1="0%" y1="0%" x2="0%" y2="100%">
      <stop offset="0%" stop-color="#FFFFFF"/>
      <stop offset="100%" stop-color="#D1FAE5"/>
    </linearGradient>
  </defs>

  <rect width="512" height="512" rx="104" fill="url(#bgRecicla)"/>

  <!-- Camioncito: caja de carga -->
  <path d="M84 176 h214 a20 20 0 0 1 20 20 v116 H84 Z" fill="url(#cajaRecicla)"/>
  <!-- Camioncito: cabina -->
  <path d="M318 232 h58 l52 56 v24 h-110 Z" fill="#ECFDF5"/>
  <!-- Camioncito: parabrisas -->
  <path d="M340 250 h34 l30 34 h-64 Z" fill="#047857"/>
  <!-- Camioncito: chasis -->
  <rect x="72" y="312" width="376" height="24" rx="12" fill="#065F46"/>

  <!-- Ruedas -->
  <circle cx="152" cy="352" r="42" fill="#022C22"/>
  <circle cx="152" cy="352" r="18" fill="#E2E8F0"/>
  <circle cx="366" cy="352" r="42" fill="#022C22"/>
  <circle cx="366" cy="352" r="18" fill="#E2E8F0"/>

  <!-- Simbolo de reciclaje: tres flechas en triangulo -->
  <g transform="translate(192 236) scale(1.62)">
    <path d="M-11 -46 L11 -46 L11 -20 L27 -20 L0 12 L-27 -20 L-11 -20 Z" fill="#22C55E" transform="rotate(0)"/>
    <path d="M-11 -46 L11 -46 L11 -20 L27 -20 L0 12 L-27 -20 L-11 -20 Z" fill="#16A34A" transform="rotate(120)"/>
    <path d="M-11 -46 L11 -46 L11 -20 L27 -20 L0 12 L-27 -20 L-11 -20 Z" fill="#4ADE80" transform="rotate(240)"/>
  </g>
</svg>
